# xmcd
#
# Track frame offsets:
#	150
#	13697
#	28121
#	39870
#	53778
#	66996
#	80918
#	92708
#	104986
#	115734
#	129902
#	143603
#	157625
#	171804
#	186527
#
# Disc length: 2670 seconds
# Revision: 1
# Processed by: cddbd v1.5.2PL0 Copyright (c) Steve Scherf et al.
# Submitted via: dBpowerAMP V12.0
#
DISCID=c80a6c0f
DTITLE=Various Artist - Great Traditional Blues
DYEAR=2016
DGENRE=Blues
TTITLE0=Muddy Waters - Mannish boy
TTITLE1=John Lee Hooker - Boogie children
TTITLE2=Little Walter - My babe
TTITLE3=Blind Lemon Jefferson - Black snake moan
TTITLE4=Robert Petway - Catfish blues
TTITLE5=B.B. King - You upset me baby
TTITLE6=Blind Willie McTell - Statesboro blues
TTITLE7=Bukka White - Parchman farm blues
TTITLE8=Jimmy Reed - Baby what you want me to do
TTITLE9=Sonny Boy Williamson - Good morning shcool girl
TTITLE10=Bo Diddley - I'm a man
TTITLE11=Muddy Waters - I'm ready
TTITLE12=B.B. King - I can't quit you baby
TTITLE13=Jimmy Reed - Little rain
TTITLE14=Charley Patton - High water everywhere
EXTD=
EXTT0=
EXTT1=
EXTT2=
EXTT3=
EXTT4=
EXTT5=
EXTT6=
EXTT7=
EXTT8=
EXTT9=
EXTT10=
EXTT11=
EXTT12=
EXTT13=
EXTT14=
PLAYORDER=
